{
  "source": "C:\\Users\\Peter\\Desktop\\stuff\\MIUN\\quantitative_research\\video_compression\\videos\\BVI-HD\\BVI-HD_CDVL_videos\\ORIG\\Grass_1920x1080_60fps.mp4",
  "output": "C:\\Users\\Peter\\Desktop\\stuff\\MIUN\\quantitative_research\\video_compression\\compressed_videos\\BVI-HD\\vp9\\2\\Grass_1920x1080_60fps_vp9.webm",
  "codec": "vp9",
  "ok": "Input #0, mov,mp4,m4a,3gp,3g2,mj2, from 'C:\\Users\\Peter\\Desktop\\stuff\\MIUN\\quantitative_research\\video_compression\\videos\\BVI-HD\\BVI-HD_CDVL_videos\\ORIG\\Grass_1920x1080_60fps.mp4':\n  Metadata:\n    major_brand     : isom\n    minor_version   : 512\n    compatible_brands: isomiso2avc1mp41\n    encoder         : Lavf54.28.101\n  Duration: 00:00:05.00, start: 0.000000, bitrate: 655968 kb/s\n  Stream #0:0[0x1](und): Video: h264 (High 4:4:4 Predictive) (avc1 / 0x31637661), yuv420p(progressive), 1920x1080, 655963 kb/s, 60 fps, 60 tbr, 60 tbn (default)\n    Metadata:\n      handler_name    : VideoHandler\n      vendor_id       : [0][0][0][0]\n[out#0/webm @ 000002a18b0c93c0] Codec AVOption b:a (set bitrate (in bits/s)) has not been used for any stream. The most likely reason is either wrong type (e.g. a video option with no video streams) or that it is a private option of some decoder which was not actually used for any stream.\nStream mapping:\n  Stream #0:0 -> #0:0 (h264 (native) -> vp9 (libvpx-vp9))\nPress [q] to stop, [?] for help\n[libvpx-vp9 @ 000002a18bce0300] v1.15.2-100-g40561f514\nOutput #0, webm, to 'C:\\Users\\Peter\\Desktop\\stuff\\MIUN\\quantitative_research\\video_compression\\compressed_videos\\BVI-HD\\vp9\\2\\Grass_1920x1080_60fps_vp9.webm':\n  Metadata:\n    major_brand     : isom\n    minor_version   : 512\n    compatible_brands: isomiso2avc1mp41\n    encoder         : Lavf62.3.100\n  Stream #0:0(und): Video: vp9, yuv420p(tv, progressive), 1920x1080, q=2-31, 2000 kb/s, 60 fps, 1k tbn (default)\n    Metadata:\n      encoder         : Lavc62.11.100 libvpx-vp9\n      handler_name    : VideoHandler\n      vendor_id       : [0][0][0][0]\n    Side data:\n      cpb: bitrate max/min/avg: 0/0/0 buffer size: 2000000 vbv_delay: N/A\nframe=    0 fps=0.0 q=0.0 size=       0KiB time=N/A bitrate=N/A speed=N/A elapsed=0:00:00.52    \nframe=    0 fps=0.0 q=0.0 size=       0KiB time=N/A bitrate=N/A speed=N/A elapsed=0:00:01.10    \nframe=    6 fps=3.6 q=57.0 size=       1KiB time=00:00:00.10 bitrate=  50.6kbits/s speed=0.0601x elapsed=0:00:01.66    \nframe=   11 fps=5.0 q=56.0 size=       1KiB time=00:00:00.18 bitrate=  27.6kbits/s speed=0.083x elapsed=0:00:02.20    \nframe=   14 fps=5.1 q=54.0 size=       1KiB time=00:00:00.23 bitrate=  21.7kbits/s speed=0.0857x elapsed=0:00:02.72    \nframe=   18 fps=5.5 q=59.0 size=       1KiB time=00:00:00.30 bitrate=  16.9kbits/s speed=0.0923x elapsed=0:00:03.24    \nframe=   22 fps=5.8 q=61.0 size=       1KiB time=00:00:00.36 bitrate=  13.8kbits/s speed=0.0969x elapsed=0:00:03.78    \nframe=   25 fps=5.8 q=48.0 size=       1KiB time=00:00:00.41 bitrate=  12.2kbits/s speed=0.0965x elapsed=0:00:04.31    \nframe=   29 fps=6.0 q=54.0 size=       1KiB time=00:00:00.48 bitrate=  10.5kbits/s speed=0.0997x elapsed=0:00:04.84    \nframe=   33 fps=6.2 q=58.0 size=       1KiB time=00:00:00.55 bitrate=   9.2kbits/s speed=0.103x elapsed=0:00:05.36    \nframe=   36 fps=6.1 q=49.0 size=       1KiB time=00:00:00.60 bitrate=   8.4kbits/s speed=0.102x elapsed=0:00:05.88    \nframe=   40 fps=6.2 q=55.0 size=       1KiB time=00:00:00.66 bitrate=   7.6kbits/s speed=0.104x elapsed=0:00:06.41    \nframe=   45 fps=6.5 q=54.0 size=       1KiB time=00:00:00.75 bitrate=   6.8kbits/s speed=0.108x elapsed=0:00:06.92    \nframe=   48 fps=6.4 q=63.0 size=       1KiB time=00:00:00.80 bitrate=   6.3kbits/s speed=0.107x elapsed=0:00:07.44    \nframe=   53 fps=6.6 q=53.0 size=       1KiB time=00:00:00.88 bitrate=   5.7kbits/s speed=0.111x elapsed=0:00:07.97    \nframe=   58 fps=6.8 q=63.0 size=       1KiB time=00:00:00.96 bitrate=   5.2kbits/s speed=0.114x elapsed=0:00:08.51    \nframe=   61 fps=6.7 q=43.0 size=       1KiB time=00:00:01.01 bitrate=   5.0kbits/s speed=0.112x elapsed=0:00:09.08    \nframe=   65 fps=6.8 q=53.0 size=       1KiB time=00:00:01.08 bitrate=   4.7kbits/s speed=0.113x elapsed=0:00:09.61    \nframe=   70 fps=6.9 q=63.0 size=       1KiB time=00:00:01.16 bitrate=   4.3kbits/s speed=0.115x elapsed=0:00:10.14    \nframe=   74 fps=6.9 q=51.0 size=       1KiB time=00:00:01.23 bitrate=   4.1kbits/s speed=0.115x elapsed=0:00:10.69    \nframe=   78 fps=6.9 q=58.0 size=       1KiB time=00:00:01.30 bitrate=   3.9kbits/s speed=0.116x elapsed=0:00:11.23    \nframe=   83 fps=7.0 q=50.0 size=       1KiB time=00:00:01.38 bitrate=   3.7kbits/s speed=0.117x elapsed=0:00:11.78    \nframe=   86 fps=7.0 q=51.0 size=       1KiB time=00:00:01.43 bitrate=   3.5kbits/s speed=0.116x elapsed=0:00:12.30    \nframe=   90 fps=7.0 q=57.0 size=       1KiB time=00:00:01.50 bitrate=   3.4kbits/s speed=0.117x elapsed=0:00:12.83    \nframe=   95 fps=7.1 q=49.0 size=       1KiB time=00:00:01.58 bitrate=   3.2kbits/s speed=0.118x elapsed=0:00:13.36    \nframe=   98 fps=7.1 q=49.0 size=       1KiB time=00:00:01.63 bitrate=   3.1kbits/s speed=0.118x elapsed=0:00:13.88    \nframe=  102 fps=7.1 q=57.0 size=       1KiB time=00:00:01.70 bitrate=   3.0kbits/s speed=0.118x elapsed=0:00:14.40    \nframe=  106 fps=7.1 q=63.0 size=       1KiB time=00:00:01.76 bitrate=   2.9kbits/s speed=0.118x elapsed=0:00:14.93    \nframe=  110 fps=7.1 q=51.0 size=       1KiB time=00:00:01.83 bitrate=   2.8kbits/s speed=0.119x elapsed=0:00:15.44    \nframe=  114 fps=7.1 q=57.0 size=       1KiB time=00:00:01.90 bitrate=   2.7kbits/s speed=0.119x elapsed=0:00:15.98    \nframe=  118 fps=7.2 q=63.0 size=       1KiB time=00:00:01.96 bitrate=   2.6kbits/s speed=0.119x elapsed=0:00:16.49    \nframe=  122 fps=7.2 q=55.0 size=       1KiB time=00:00:02.03 bitrate=   2.5kbits/s speed=0.119x elapsed=0:00:17.03    \nframe=  127 fps=7.2 q=51.0 size=       1KiB time=00:00:02.11 bitrate=   2.4kbits/s speed=0.12x elapsed=0:00:17.56    \nframe=  129 fps=7.1 q=43.0 size=       1KiB time=00:00:02.15 bitrate=   2.4kbits/s speed=0.119x elapsed=0:00:18.09    \nframe=  134 fps=7.2 q=58.0 size=     768KiB time=00:00:02.23 bitrate=2817.1kbits/s speed=0.12x elapsed=0:00:18.61    \nframe=  138 fps=7.2 q=63.0 size=     768KiB time=00:00:02.30 bitrate=2735.4kbits/s speed=0.12x elapsed=0:00:19.15    \nframe=  141 fps=7.2 q=60.0 size=     768KiB time=00:00:02.35 bitrate=2677.2kbits/s speed=0.119x elapsed=0:00:19.68    \nframe=  145 fps=7.2 q=55.0 size=     768KiB time=00:00:02.41 bitrate=2603.4kbits/s speed=0.12x elapsed=0:00:20.21    \nframe=  149 fps=7.2 q=61.0 size=     768KiB time=00:00:02.48 bitrate=2533.5kbits/s speed=0.12x elapsed=0:00:20.73    \nframe=  152 fps=7.1 q=45.0 size=     768KiB time=00:00:02.53 bitrate=2483.5kbits/s speed=0.119x elapsed=0:00:21.29    \nframe=  156 fps=7.2 q=50.0 size=     768KiB time=00:00:02.60 bitrate=2419.8kbits/s speed=0.119x elapsed=0:00:21.80    \nframe=  161 fps=7.2 q=59.0 size=     768KiB time=00:00:02.68 bitrate=2344.6kbits/s speed=0.12x elapsed=0:00:22.32    \nframe=  163 fps=7.1 q=61.0 size=     768KiB time=00:00:02.71 bitrate=2315.9kbits/s speed=0.119x elapsed=0:00:22.87    \nframe=  167 fps=7.1 q=52.0 size=     768KiB time=00:00:02.78 bitrate=2260.4kbits/s speed=0.119x elapsed=0:00:23.38    \nframe=  171 fps=7.1 q=56.0 size=     768KiB time=00:00:02.85 bitrate=2207.5kbits/s speed=0.119x elapsed=0:00:23.92    \nframe=  175 fps=7.2 q=61.0 size=     768KiB time=00:00:02.91 bitrate=2157.1kbits/s speed=0.119x elapsed=0:00:24.45    \nframe=  177 fps=7.1 q=48.0 size=     768KiB time=00:00:02.95 bitrate=2132.7kbits/s speed=0.118x elapsed=0:00:24.98    \nframe=  182 fps=7.1 q=53.0 size=     768KiB time=00:00:03.03 bitrate=2074.1kbits/s speed=0.119x elapsed=0:00:25.51    \nframe=  187 fps=7.2 q=61.0 size=     768KiB time=00:00:03.11 bitrate=2018.6kbits/s speed=0.12x elapsed=0:00:26.05    \nframe=  189 fps=7.1 q=49.0 size=     768KiB time=00:00:03.15 bitrate=1997.3kbits/s speed=0.118x elapsed=0:00:26.58    \nframe=  194 fps=7.2 q=52.0 size=     768KiB time=00:00:03.23 bitrate=1945.8kbits/s speed=0.119x elapsed=0:00:27.10    \nframe=  199 fps=7.2 q=60.0 size=     768KiB time=00:00:03.31 bitrate=1896.9kbits/s speed=0.12x elapsed=0:00:27.64    \nframe=  201 fps=7.1 q=49.0 size=     768KiB time=00:00:03.35 bitrate=1878.0kbits/s speed=0.119x elapsed=0:00:28.20    \nframe=  206 fps=7.2 q=53.0 size=     768KiB time=00:00:03.43 bitrate=1832.5kbits/s speed=0.119x elapsed=0:00:28.75    \nframe=  211 fps=7.2 q=59.0 size=     768KiB time=00:00:03.51 bitrate=1789.0kbits/s speed=0.12x elapsed=0:00:29.29    \nframe=  214 fps=7.2 q=49.0 size=     768KiB time=00:00:03.56 bitrate=1764.0kbits/s speed=0.12x elapsed=0:00:29.83    \nframe=  218 fps=7.2 q=53.0 size=     768KiB time=00:00:03.63 bitrate=1731.6kbits/s speed=0.12x elapsed=0:00:30.36    \nframe=  223 fps=7.2 q=59.0 size=     768KiB time=00:00:03.71 bitrate=1692.8kbits/s speed=0.12x elapsed=0:00:30.89    \nframe=  225 fps=7.2 q=50.0 size=     768KiB time=00:00:03.75 bitrate=1677.7kbits/s speed=0.119x elapsed=0:00:31.42    \nframe=  229 fps=7.2 q=53.0 size=     768KiB time=00:00:03.81 bitrate=1648.4kbits/s speed=0.119x elapsed=0:00:31.94    \nframe=  233 fps=7.2 q=57.0 size=     768KiB time=00:00:03.88 bitrate=1620.1kbits/s speed=0.12x elapsed=0:00:32.46    \nframe=  237 fps=7.2 q=50.0 size=     768KiB time=00:00:03.95 bitrate=1592.8kbits/s speed=0.12x elapsed=0:00:32.97    \nframe=  241 fps=7.2 q=55.0 size=     768KiB time=00:00:04.01 bitrate=1566.3kbits/s speed=0.12x elapsed=0:00:33.52    \nframe=  245 fps=7.2 q=58.0 size=     768KiB time=00:00:04.08 bitrate=1540.8kbits/s speed=0.12x elapsed=0:00:34.05    \nframe=  249 fps=7.2 q=52.0 size=     768KiB time=00:00:04.15 bitrate=1516.0kbits/s speed=0.12x elapsed=0:00:34.58    \nframe=  253 fps=7.2 q=56.0 size=     768KiB time=00:00:04.21 bitrate=1492.0kbits/s speed=0.12x elapsed=0:00:35.10    \nframe=  256 fps=7.2 q=50.0 size=     768KiB time=00:00:04.26 bitrate=1474.6kbits/s speed=0.12x elapsed=0:00:35.62    \nframe=  260 fps=7.2 q=52.0 size=    1280KiB time=00:00:04.33 bitrate=2419.8kbits/s speed=0.12x elapsed=0:00:36.15    \nframe=  266 fps=7.2 q=59.0 size=    1280KiB time=00:00:04.43 bitrate=2365.2kbits/s speed=0.121x elapsed=0:00:36.70    \nframe=  269 fps=7.2 q=42.0 size=    1280KiB time=00:00:04.48 bitrate=2338.8kbits/s speed=0.12x elapsed=0:00:37.24    \nframe=  273 fps=7.2 q=49.0 size=    1280KiB time=00:00:04.55 bitrate=2304.6kbits/s speed=0.12x elapsed=0:00:37.77    \nframe=  276 fps=7.2 q=54.0 size=    1280KiB time=00:00:04.60 bitrate=2279.5kbits/s speed=0.12x elapsed=0:00:38.30    \nframe=  276 fps=7.1 q=54.0 size=    1280KiB time=00:00:04.60 bitrate=2279.5kbits/s speed=0.119x elapsed=0:00:38.81    \nframe=  276 fps=7.0 q=54.0 size=    1280KiB time=00:00:04.60 bitrate=2279.5kbits/s speed=0.117x elapsed=0:00:39.36    \nframe=  276 fps=6.9 q=54.0 size=    1280KiB time=00:00:04.60 bitrate=2279.5kbits/s speed=0.115x elapsed=0:00:39.89    \nframe=  276 fps=6.8 q=54.0 size=    1280KiB time=00:00:04.60 bitrate=2279.5kbits/s speed=0.114x elapsed=0:00:40.41    \nframe=  276 fps=6.7 q=54.0 size=    1280KiB time=00:00:04.60 bitrate=2279.5kbits/s speed=0.112x elapsed=0:00:40.93    \n[out#0/webm @ 000002a18b0c93c0] video:1810KiB audio:0KiB subtitle:0KiB other streams:0KiB global headers:0KiB muxing overhead: 0.153596%\nframe=  300 fps=7.2 q=53.0 Lsize=    1813KiB time=00:00:05.00 bitrate=2970.3kbits/s speed=0.121x elapsed=0:00:41.43    \n",
  "seconds": 41.776856660842896,
  "probe_out": {}
}